<?xml version="1.0" encoding="UTF-8" ?>
<!DOCTYPE svg PUBLIC "-//W3C//DTD SVG 1.1//EN" "http://www.w3.org/Graphics/SVG/1.1/DTD/svg11.dtd">
<svg width="308pt" height="308pt" viewBox="0 0 308 308" version="1.1" xmlns="http://www.w3.org/2000/svg">
<g id="#ffffffff">
</g>
<g id="#000000ff">
<path fill="#000000" opacity="1.00" d=" M 52.00 28.51 C 87.34 28.39 122.68 28.57 158.01 28.50 C 178.98 28.57 199.87 34.98 217.20 46.80 C 235.62 59.37 249.97 77.88 257.15 99.03 C 265.10 121.82 264.70 147.41 256.06 169.94 C 249.26 187.60 237.51 203.10 223.08 215.25 C 205.62 198.21 195.57 173.43 197.55 149.00 C 198.24 129.56 206.95 111.10 219.38 96.40 C 216.67 94.17 214.31 91.56 211.62 89.30 C 198.70 100.13 182.91 107.76 166.16 110.14 C 141.44 114.09 115.68 105.53 96.96 89.19 C 94.38 91.71 91.69 94.12 88.93 96.45 C 115.26 124.18 118.47 170.41 96.73 201.76 C 94.55 205.20 91.72 208.15 89.17 211.30 C 91.57 214.11 94.40 216.48 96.97 219.12 C 125.99 191.83 174.97 190.21 206.18 214.72 C 209.87 217.70 213.37 220.91 216.52 224.47 C 232.99 242.04 248.76 260.25 265.36 277.70 C 251.23 277.80 237.10 278.22 222.97 277.75 C 179.33 277.75 135.68 277.77 92.04 277.74 C 78.70 278.01 65.34 278.09 52.00 277.73 C 52.00 194.66 51.99 111.59 52.00 28.51 Z" />
</g>
</svg>
